HIERARCHY
ROOT Hips
{
  OFFSET 0 0 0
  CHANNELS 6 Xposition Yposition Zposition Zrotation Xrotation Yrotation
  JOINT Spine
  {
    OFFSET 0.00000000 0.00000000 0.00000000
    CHANNELS 3 Zrotation Xrotation Yrotation
    JOINT Spine1
    {
      OFFSET 0.19000000 0.00000000 0.00000000
      CHANNELS 3 Zrotation Xrotation Yrotation
      JOINT Neck
      {
        OFFSET 0.22500000 0.00600000 0.00000000
        CHANNELS 3 Zrotation Xrotation Yrotation
        JOINT Head
        {
          OFFSET 0.14000000 0.00030878 0.00000000
          CHANNELS 3 Zrotation Xrotation Yrotation
          End Site
          {
            OFFSET 0.17000000 0.00000000 0.00000000
          }
        }
      }
      JOINT LeftShoulder
      {
        OFFSET 0.19800000 0.03700000 0.04300000
        CHANNELS 3 Zrotation Xrotation Yrotation
        JOINT LeftArm
        {
          OFFSET 0.08000000 0.00000000 0.00000000
          CHANNELS 3 Zrotation Xrotation Yrotation
          JOINT LeftForeArm
          {
            OFFSET 0.15200000 0.00000000 0.00000000
            CHANNELS 3 Zrotation Xrotation Yrotation
            JOINT LeftHand
            {
              OFFSET 0.17800000 0.00000000 0.00000000
              CHANNELS 3 Zrotation Xrotation Yrotation
              End Site
              {
                OFFSET 0.07200000 0.00000000 0.00000000
              }
            }
          }
        }
      }
      JOINT RightShoulder
      {
        OFFSET 0.19800000 0.03700000 -0.04300000
        CHANNELS 3 Zrotation Xrotation Yrotation
        JOINT RightArm
        {
          OFFSET 0.08000000 0.00000000 0.00151654
          CHANNELS 3 Zrotation Xrotation Yrotation
          JOINT RightForeArm
          {
            OFFSET 0.15200000 0.00000000 0.00000000
            CHANNELS 3 Zrotation Xrotation Yrotation
            JOINT RightHand
            {
              OFFSET 0.17800000 0.00000000 0.00000000
              CHANNELS 3 Zrotation Xrotation Yrotation
              End Site
              {
                OFFSET 0.07200000 0.00000000 0.00000000
              }
            }
          }
        }
      }
    }
  }
  JOINT LeftUpLeg
  {
    OFFSET 0.05984250 -0.07666000 0.04788790
    CHANNELS 3 Zrotation Xrotation Yrotation
    JOINT LeftLeg
    {
      OFFSET 0.16000000 0.00000000 0.00000000
      CHANNELS 3 Zrotation Xrotation Yrotation
      JOINT LeftFoot
      {
        OFFSET 0.18000000 0.00000000 0.00000000
        CHANNELS 3 Zrotation Xrotation Yrotation
        End Site
        {
          OFFSET 0.00000000 -0.10800000 0.00000000
        }
      }
    }
  }
  JOINT RightUpLeg
  {
    OFFSET 0.05984250 -0.07665980 -0.04788790
    CHANNELS 3 Zrotation Xrotation Yrotation
    JOINT RightLeg
    {
      OFFSET 0.16000000 0.00000000 0.00000000
      CHANNELS 3 Zrotation Xrotation Yrotation
      JOINT RightFoot
      {
        OFFSET 0.18000000 0.00000000 0.00000000
        CHANNELS 3 Zrotation Xrotation Yrotation
        End Site
        {
          OFFSET 0.00000000 -0.10800000 0.00000000
        }
      }
    }
  }
  JOINT Tail
  {
    OFFSET 0.06836960 -0.00722574 0.00000000
    CHANNELS 3 Zrotation Xrotation Yrotation
    JOINT Tail1
    {
      OFFSET 0.12000000 0.00000000 0.00000000
      CHANNELS 3 Zrotation Xrotation Yrotation
      End Site
      {
        OFFSET 0.12000000 0.00000000 0.00000000
      }
    }
  }
}
MOTION
Frames:	19
Frame Time:	0.0166667
0.0000000 0.4554130 0.0000000 -4.22040 3.61253 0.26640 -163.185 -1.28904 -16.696 -10.1254 2.4202 1.84207 -4.43002 -4.96696 8.49455 -103.628 79.0534 119.121 -110.96 -38.1969 -136.572 127.108 -45.5459 -137.113 47.8091 -67.5644 142.544 33.452 -5.46813 -69.7168 74.6555 -29.6243 41.4628 54.7087 -40.5951 -40.2092 -86.2799 -16.4885 -6.61472 -16.25 -1.77903 11.1057 -139.869 -2.7407 -23.6198 89.2383 15.3437 9.00386 34.0445 -3.14771 -6.23188 -122.398 1.9306 -6.74174 79.703 -16.5897 -3.5917 47.3427 3.20302 1.511 -32.6485 -51.2518 15.7982 1.85291 35.7626 -0.918529 
-0.0193745 0.4569000 0.0040624 -3.38054 4.42424 -0.72887 -163.233 -1.779 -17.9506 -11.7359 2.13681 2.07555 -3.4259 -4.34536 9.31552 -106.318 79.5352 121.203 -112.039 -39.9718 -136.09 127.908 -38.7191 -135.408 50.5563 -58.3571 149.095 16.5886 5.48694 -76.0156 76.0106 -27.291 40.2868 54.8459 -43.4055 -38.4035 -85.5064 -19.0749 -6.36847 -18.6708 -1.92577 11.4603 -141.345 -0.908823 -24.5491 80.9658 15.8463 12.3179 37.4178 -3.71163 -7.02105 -120.219 1.45006 -7.01245 79.0847 -17.4253 -3.32189 48.1968 3.52659 1.71272 -32.9434 -52.0853 16.0429 1.40971 35.9373 -0.904102 
-0.0389358 0.4579230 0.0082295 -2.15258 5.12346 -1.11645 -166.533 -1.97944 -20.5407 -7.96785 0.836361 6.50324 -5.80097 -3.4511 6.86756 -109.752 78.4664 124.374 -111.467 -42.5856 -130.461 127.248 -29.5796 -130.164 37.1181 -62.5293 141.111 22.1476 2.40448 -66.3761 72.8054 -30.2209 36.8006 55.0572 -45.0565 -41.1687 -83.1712 -18.6563 -5.11877 -18.4792 -2.07356 11.66 -142.86 0.835688 -25.7763 73.0007 18.7508 16.3285 41.7032 -4.91092 -8.5124 -118.26 1.44978 -7.01933 77.4209 -17.915 -3.29721 50.8699 3.82404 1.69154 -34.4697 -52.4264 15.0572 1.20981 35.9688 -0.718775 
-0.0574110 0.4585680 0.0122572 -1.79194 5.62664 -0.84433 -167.072 -2.09995 -21.9257 -8.32668 0.131833 9.37302 -5.42743 -2.56333 5.98259 -112.316 78.2982 126.786 -111.696 -42.8928 -130.524 126.255 -21.3169 -127.969 13.3748 -69.5571 121.891 25.9762 0.697949 -54.9254 73.0769 -29.2535 35.2115 55.0483 -46.8844 -40.3765 -80.4494 -19.3711 -4.48793 -19.1414 -2.09296 11.4803 -142.409 1.34836 -26.7607 65.5875 23.5654 20.3764 45.0344 -6.42764 -10.182 -116.024 1.52966 -7.14092 76.6722 -17.5971 -3.28636 52.7893 3.88563 1.50968 -35.2335 -51.8486 13.5044 0.905619 35.7063 -0.4979 
-0.0751970 0.4583410 0.0162428 -1.75958 6.02575 -0.04299 -166.206 -2.33634 -20.9766 -11.6364 -0.231712 8.76618 -2.5173 -1.8658 7.50944 -115.301 79.6001 128.96 -112.721 -42.0146 -134.276 126.471 -16.0087 -127.189 -52.3934 -69.8042 57.5095 25.6573 1.46821 -35.7463 77.3863 -24.0271 35.9576 52.5181 -49.8143 -38.6432 -77.2676 -18.1732 -3.69432 -18.8337 -2.57976 12.74 -141.579 0.208048 -25.2086 63.2501 24.543 20.2054 47.4803 -6.64936 -10.1739 -114.183 1.81123 -7.38717 76.4786 -16.8524 -3.34231 55.4233 3.78332 1.12797 -35.8588 -50.6929 11.4637 0.805224 35.2758 -0.395538 
-0.0922249 0.4578560 0.0204863 -2.29107 6.13913 0.92482 -167.201 -2.09575 -20.6677 -10.1456 -0.566147 10.3047 -2.92817 -1.05201 6.88129 -117.849 80.2142 131.889 -112.999 -42.1991 -134.616 126.22 -11.3979 -124.354 -81.5332 -45.9226 25.3109 17.2775 2.32353 -9.95118 78.4533 -22.3581 34.8999 50.1152 -51.0012 -38.2803 -73.8787 -17.8315 -3.07199 -17.9546 -2.35521 12.1561 -138.414 -0.760702 -20.8709 64.3789 22.3455 16.0605 44.156 -5.79736 -9.37921 -112.764 1.95534 -7.3993 77.3198 -15.8626 -3.39648 58.1866 3.48178 0.60839 -35.423 -49.0697 9.84532 1.00208 34.5962 -0.49498 
-0.1087039 0.4572750 0.0250070 -3.21162 6.17786 1.64905 -168.535 -1.86289 -21.0535 -7.32982 -1.00073 13.2223 -4.22946 0.191784 4.30733 -120.361 79.8886 135.804 -112.841 -42.2361 -134.195 128.643 -6.07698 -122.547 -80.4882 -27.0239 18.913 0.968456 1.56301 -8.06653 78.491 -21.8695 33.2238 48.3743 -50.7457 -37.9558 -70.1899 -21.8307 -2.75187 -19.0236 -1.08179 8.38937 -134.622 -0.784071 -17.6721 69.5877 17.3607 12.5152 36.5801 -4.77942 -8.74489 -112.619 1.97273 -7.33287 79.8369 -15.0326 -3.46313 60.94 3.03578 0.0470854 -33.9242 -47.5149 9.05699 1.46133 33.7702 -0.887925 
-0.1269928 0.4537020 0.0292341 -4.24056 6.68098 2.54092 -169.605 -1.39602 -21.0728 -5.42494 -1.06841 15.587 -4.78688 0.881544 2.23095 -121.338 80.1901 137.915 -113.145 -42.2907 -134.802 128.598 -1.34446 -120.291 -75.6901 -29.2689 18.5026 3.42216 2.27008 -12.3839 79.244 -20.705 32.2645 47.7478 -51.5917 -37.6782 -67.5816 -21.0742 -1.8962 -16.6757 -0.509392 6.5027 -131.994 -0.70155 -18.108 72.2775 20.9058 12.2066 31.8507 -5.05495 -9.53114 -114.277 2.33543 -8.31751 85.4365 -11.9866 -3.42836 62.3787 2.35728 -0.574449 -32.9104 -46.3198 7.41146 1.95647 33.1016 -1.29169 
-0.1462945 0.4486520 0.0340376 -4.41241 7.91647 3.94908 -171.896 -0.288509 -20.3576 -3.39985 -0.73604 17.9718 -5.01391 1.29246 -0.231557 -120.655 80.2643 138.991 -113.34 -42.5828 -134.772 126.959 2.01188 -118.337 -71.1894 -20.5143 15.5735 5.24318 0.832142 -4.27356 79.8275 -19.8752 31.749 45.9615 -53.5901 -37.4585 -66.4922 -18.1363 -2.06039 -11.9906 0.28942 3.64726 -131.176 0.297191 -19.0565 76.3759 22.3987 10.5173 29.0796 -4.86705 -9.41415 -119.324 3.88127 -9.72694 94.3349 -6.10967 -3.48787 60.619 1.39682 -1.19075 -34.2538 -45.733 4.08513 2.67378 32.758 -1.62411 
-0.1657983 0.4456070 0.0384501 -4.71529 8.80519 4.96974 -173.276 0.381296 -19.7882 -2.07301 -0.576068 19.8487 -5.07883 1.64112 -2.33781 -119.954 80.282 140.107 -113.371 -43.0677 -134.07 127.52 0.901093 -118.561 -67.4759 -12.8381 10.6981 0.332345 1.36829 -10.4004 79.8446 -19.9999 32.3985 49.7481 -51.1104 -36.3561 -68.8123 -15.4442 -3.01046 -3.48557 2.49583 -8.92554 -129.412 0.638279 -21.6584 79.5923 24.4919 10.9558 26.5435 -5.10757 -10.1613 -124.365 5.28815 -10.6886 101.634 -3.70725 -3.65628 53.5859 0.653559 -1.25783 -35.0335 -45.2955 1.63074 3.19123 32.5005 -1.80252 
-0.1853381 0.4459710 0.0423434 -5.39004 8.85270 6.02325 -172.748 0.367218 -18.2872 -2.02196 -0.760263 19.9367 -4.94262 1.5436 -3.95316 -116.66 78.0334 137.712 -113.358 -43.5391 -133.305 133.306 -3.8629 -119.673 -62.0714 -2.85115 5.22138 -3.7013 1.28652 -10.1175 79.0974 -21.1912 33.5248 57.2376 -46.1765 -35.7895 -77.8856 2.03289 -3.77058 23.6194 -2.38571 -21.406 -126.162 -0.317412 -23.2942 79.5618 26.6959 11.9491 26.5337 -5.54926 -10.9622 -128.816 6.55901 -9.75794 106.434 -4.36355 -3.93362 45.0172 0.172967 -1.1684 -34.6423 -44.2103 0.19315 3.4429 32.2335 -2.06222 
-0.2054989 0.4473550 0.0465360 -5.77008 8.64458 7.03143 -171.467 0.275292 -16.2722 -2.89946 -0.990285 19.1531 -4.56507 1.69719 -5.08799 -115.881 76.495 137.021 -112.612 -42.8975 -132.622 138.366 -9.68425 -120.438 -58.4479 4.72687 2.65791 -7.3908 0.59173 -7.08599 77.7577 -23.2605 34.9594 60.7783 -45.5222 -34.4878 -88.9351 25.1601 -5.48778 47.0815 -4.98878 -7.4678 -122.82 -1.46046 -22.8889 79.8318 26.3028 11.4429 26.5166 -5.50739 -10.9207 -132.405 7.57895 -8.23411 105.947 -3.67826 -4.086 39.179 -0.210631 -1.25364 -33.9697 -42.8105 -0.641202 3.37725 31.8661 -2.41921 
-0.2272449 0.4482200 0.0512394 -5.60238 8.78569 7.81232 -170.405 0.61064 -14.0252 -3.86426 -0.699721 17.5135 -4.3266 1.85404 -5.53369 -116.14 75.5137 136.508 -111.755 -41.471 -132.899 138.566 -17.4314 -122.319 -63.2525 11.1647 4.57082 -14.7502 0.352853 -7.5317 75.9332 -26.212 36.8987 57.9676 -44.3865 -34.213 -93.2178 43.0719 -10.3913 61.1788 -3.22899 1.74677 -119.804 -1.8379 -22.5838 80.2222 26.1467 10.7659 26.3015 -5.46416 -10.9451 -135.597 8.3319 -6.64628 101.8 -4.73687 -4.62276 36.5791 -0.26977 -1.20871 -33.6854 -41.638 -1.40128 3.18668 31.2845 -2.64021 
-0.2503814 0.4490760 0.0562696 -5.17844 9.16366 8.47446 -169.044 0.995968 -10.655 -5.52099 -0.083338 13.4973 -3.37591 1.49537 -3.70824 -116.961 76.074 135.113 -110.69 -39.1744 -134.151 134.792 -21.8781 -125.369 -70.3641 8.99112 7.1767 -16.198 1.08847 -10.2202 74.9459 -28.4278 39.4278 56.621 -40.1267 -32.7767 -94.7438 54.9559 -19.1114 63.9768 -1.12145 6.56592 -116.691 -2.02623 -22.5339 79.797 25.5668 10.3503 26.8347 -5.39225 -10.8279 -138.045 9.0735 -4.74306 95.0727 -6.32823 -5.71765 39.1113 0.00171309 -1.06359 -33.5386 -40.6297 -2.06524 2.76758 30.5374 -2.69652 
-0.2745174 0.4506340 0.0616597 -4.30093 9.67857 8.73435 -168.048 1.58022 -7.62694 -6.91458 0.868955 9.38594 -2.37699 1.51904 -1.85629 -119.306 76.9773 134.934 -110.183 -37.3707 -136.089 132.309 -25.6148 -127.613 -75.2873 4.55687 8.31974 -15.4516 2.61848 -15.2985 73.8099 -31.1301 42.2268 57.2983 -32.7671 -32.2071 -93.1779 60.7145 -29.3354 56.3587 0.441642 10.1816 -113.608 -2.12112 -22.8177 78.0386 25.8116 10.5351 29.2812 -5.58064 -10.9334 -138.757 9.23564 -4.07429 85.2582 -8.75491 -6.92989 44.9514 0.559755 -0.771255 -33.3137 -39.6885 -2.24509 2.20456 29.4664 -2.57151 
-0.2977332 0.4535000 0.0667174 -3.35402 10.0625 8.79381 -167.246 2.12313 -5.46504 -8.10649 1.70357 6.43949 -1.12078 1.76466 -0.637767 -121.763 78.0546 136.493 -109.856 -35.7161 -138.398 133.096 -29.5072 -129.679 -77.393 6.5057 9.20039 -18.6779 3.67256 -18.2583 73.1198 -33.2935 44.8097 58.2352 -23.4266 -35.0096 -91.9093 59.1244 -33.5951 47.6199 -0.0194882 8.10691 -111.06 -2.49493 -23.299 75.5899 26.0276 11.0672 33.0697 -5.82703 -10.9119 -136.897 9.04722 -4.71561 75.896 -11.6652 -7.6188 49.9325 1.128 -0.474211 -32.5551 -38.4203 -2.14002 1.491 27.9598 -2.12166 
-0.3184556 0.4567500 0.0708681 -2.61194 10.3481 8.40358 -167.015 2.38606 -3.6624 -8.6256 2.44123 3.19684 1.13739 1.54276 0.41056 -122.493 77.6038 135.089 -109.539 -34.035 -140.988 128.92 -30.7358 -132.584 -79.8032 4.4988 9.94489 -18.4441 3.71734 -18.2482 72.8655 -34.0058 45.5084 60.6395 -12.7974 -40.7008 -90.3082 52.1387 -33.2611 38.2328 -0.851178 2.63123 -109.582 -2.93005 -23.4011 74.0871 25.4956 11.2231 38.4407 -6.00164 -10.5889 -133.864 9.6142 -5.63205 73.8 -11.1756 -7.49501 51.6477 1.24493 -0.486222 -30.7681 -36.9401 -1.53872 0.648598 26.0352 -1.49226 
-0.3388264 0.4578250 0.0737625 -1.69088 10.3645 7.62986 -168.731 2.40749 -2.61272 -6.99332 2.86933 0.724993 3.63541 0.55061 1.22846 -121.242 76.8468 130.5 -109.153 -32.7445 -142.724 126.575 -31.6183 -134.748 -79.7492 4.78455 10.3888 -20.6851 4.31123 -19.0941 72.7025 -34.5101 46.0371 60.2756 -6.66787 -45.4508 -92.2499 35.0107 -25.8543 24.6801 -0.866504 -6.25092 -109.551 -3.00663 -22.2873 74.8 24.2499 10.0681 43.5042 -5.85536 -9.90323 -131.217 9.08561 -7.73921 77.0723 -7.80181 -6.01172 49.8558 0.973281 -0.71461 -28.8599 -35.2692 -0.66993 0.184336 24.0729 -0.91073 
-0.3608236 0.4551990 0.0758204 -0.28139 9.87231 6.23842 -172.662 2.16558 -2.48417 -3.25935 2.94085 -1.15979 5.876 -0.406324 2.21453 -120.942 76.6077 126.28 -108.731 -31.5422 -144.271 125.452 -32.3079 -136.352 -78.2169 6.00013 10.5064 -23.1307 4.90301 -19.8728 73.0757 -33.9416 46.0121 54.1683 -4.12074 -47.5771 -90.071 15.2188 -19.5323 8.651 0.871657 -7.30925 -111.889 -3.01974 -20.0249 79.4713 22.1805 7.76247 47.093 -5.30225 -8.94445 -128.702 6.96279 -9.89835 77.5501 -7.26846 -4.40658 46.3026 1.03978 -0.619278 -27.4177 -33.6371 0.87009 0.257405 22.403 -0.399021 
